<?xml version="1.0" encoding="UTF-8"?>
<svg width="64px" height="64px" viewBox="0 0 64 64" version="1.1" xmlns="http://www.w3.org/2000/svg" xmlns:xlink="http://www.w3.org/1999/xlink">
    <!-- Generator: Sketch 50.2 (55047) - http://www.bohemiancoding.com/sketch -->
    <title>Artboard Copy 2</title>
    <desc>Created with Sketch.</desc>
    <defs></defs>
    <g id="Artboard-Copy-2" stroke="none" stroke-width="1" fill="none" fill-rule="evenodd">
        <circle id="Oval" stroke="#004864" stroke-width="4" cx="32" cy="32" r="30"></circle>
        <path d="M35.1691347,22.8960151 L30.870463,47.4277019 C30.5103631,49.5282849 29.8801976,51.0286789 28.9799477,51.9289288 C28.0796978,52.8291787 26.7593511,53.2792969 25.018868,53.2792969 C23.4884432,53.2792969 21.8155039,53.0917476 20,52.7166435 L20.7877147,49.2281926 C22.273127,49.5582843 23.4059245,49.7233276 24.186141,49.7233276 C25.0713868,49.7233276 25.7128052,49.4832646 26.1104155,49.0031313 C26.5080259,48.522998 26.8193577,47.6152597 27.0444201,46.279889 L31.0730182,22.8960151 L26.5492852,22.8960151 L27.0444201,19.7676624 L31.6131655,19.7676624 L32.1758188,16.7293343 C32.5209146,14.5537304 33.0535545,12.9858187 33.7737544,12.0255521 C34.9140709,10.6751773 36.5495003,10 38.6800917,10 C39.2802583,10 40.1654908,10.1500394 41.3358156,10.4501227 L42.9562573,10.832727 L43.3613677,10.9227515 L42.5961592,14.3886963 C40.9757094,14.0135921 39.820406,13.8260429 39.1302144,13.8260429 C38.184952,13.8260429 37.5210277,14.0623549 37.1384215,14.5349861 C36.7558153,15.0076173 36.4369816,15.9716204 36.1819108,17.4270244 L35.7768004,19.7676624 L40.3230396,19.7676624 L39.7828923,22.8960151 L35.1691347,22.8960151 Z" id="ƒ" fill="#004864"></path>
    </g>
</svg>