<svg width="88" height="84" viewBox="0 0 88 84" fill="none" xmlns="http://www.w3.org/2000/svg">
<path d="M75.5556 3.5V20.6111ZM67 12.0556H84.1112ZM12.0556 63.3889V80.5ZM3.5 71.9444H20.6111ZM42.9999 3.5L52.7776 32.8333L77.2222 42L52.7776 51.1669L42.9999 80.5L33.2222 51.1669L8.7777 42L33.2222 32.8333L42.9999 3.5Z" fill="#4A5568"/>
<path d="M75.5556 3.5V20.6111M67 12.0556H84.1112M12.0556 63.3889V80.5M3.5 71.9444H20.6111M42.9999 3.5L52.7776 32.8333L77.2222 42L52.7776 51.1669L42.9999 80.5L33.2222 51.1669L8.7777 42L33.2222 32.8333L42.9999 3.5Z" stroke="#4A5568" stroke-width="7" stroke-linecap="round" stroke-linejoin="round"/>
</svg>
