<svg viewBox="0 0 20 17" fill="currentColor" xmlns="http://www.w3.org/2000/svg">
<path d="M17.6933 2.30667C17.6944 2.8782 17.4827 3.42968 17.0994 3.85365C16.7161 4.27761 16.1887 4.54367 15.6199 4.6H15.3866H15.1466C14.703 4.55359 14.2824 4.37958 13.9356 4.09902C13.5889 3.81846 13.331 3.4434 13.193 3.01926C13.0551 2.59511 13.043 2.14006 13.1584 1.70922C13.2738 1.27838 13.5116 0.890232 13.843 0.591767C14.1744 0.293302 14.5853 0.0973262 15.0258 0.0275709C15.4664 -0.0421844 15.9177 0.0172726 16.3251 0.198742C16.7325 0.380212 17.0786 0.675911 17.3214 1.05003C17.5643 1.42415 17.6934 1.86065 17.6933 2.30667V2.30667Z" />
<path d="M7.88 10.9C7.21132 11.1572 6.60442 11.5526 6.09897 12.0604C5.59351 12.5681 5.20086 13.1768 4.94667 13.8467H0V10C0.00351786 8.77755 0.490694 7.60617 1.3551 6.74177C2.21951 5.87736 3.39088 5.39019 4.61333 5.38667C5.30714 5.38526 5.9918 5.54501 6.61333 5.85333C6.15718 6.701 6.03421 7.68852 6.26854 8.62217C6.50288 9.55582 7.07762 10.3682 7.88 10.9V10.9Z" />
<path d="M20 10V13.8467H15.0533C14.7991 13.1768 14.4065 12.5681 13.901 12.0604C13.3955 11.5526 12.7886 11.1572 12.12 10.9C12.9224 10.3682 13.4971 9.55582 13.7314 8.62217C13.9658 7.68852 13.8428 6.701 13.3866 5.85333C14.0082 5.54501 14.6928 5.38526 15.3866 5.38667C16.6096 5.38843 17.782 5.87504 18.6468 6.73983C19.5116 7.60462 19.9982 8.77701 20 10V10Z" />
<path d="M13.0801 7.69334C13.0802 8.37567 12.8528 9.03856 12.4338 9.5771C12.0148 10.1156 11.4282 10.4991 10.7667 10.6667C10.2643 10.8001 9.73581 10.8001 9.23341 10.6667C8.57199 10.4991 7.98535 10.1156 7.56636 9.5771C7.14736 9.03856 6.91994 8.37567 6.92008 7.69334C6.9188 7.18585 7.04487 6.68615 7.28674 6.24C7.5486 5.74773 7.93946 5.33597 8.41743 5.04883C8.8954 4.76169 9.44249 4.61 10.0001 4.61C10.5577 4.61 11.1048 4.76169 11.5827 5.04883C12.0607 5.33597 12.4515 5.74773 12.7134 6.24C12.9556 6.68604 13.0816 7.18581 13.0801 7.69334V7.69334Z" />
<path d="M14.6133 15.5V16.92H5.38667V15.5C5.40635 14.6261 5.69189 13.779 6.20523 13.0715C6.71857 12.364 7.43534 11.8298 8.26 11.54C8.56888 11.6892 8.89617 11.7968 9.23334 11.86C9.73978 11.9577 10.2602 11.9577 10.7667 11.86C11.1038 11.7968 11.4311 11.6892 11.74 11.54C12.3034 11.7475 12.82 12.0648 13.26 12.4733C13.682 12.8573 14.02 13.3244 14.2529 13.8453C14.4858 14.3661 14.6085 14.9295 14.6133 15.5V15.5Z" />
<path d="M17.6933 2.30667C17.6944 2.8782 17.4827 3.42968 17.0994 3.85365C16.7161 4.27761 16.1887 4.54367 15.6199 4.6H15.3866H15.1466C14.703 4.55359 14.2824 4.37958 13.9356 4.09902C13.5889 3.81846 13.331 3.4434 13.193 3.01926C13.0551 2.59511 13.043 2.14006 13.1584 1.70922C13.2738 1.27838 13.5116 0.890232 13.843 0.591767C14.1744 0.293302 14.5853 0.0973262 15.0258 0.0275709C15.4664 -0.0421844 15.9177 0.0172726 16.3251 0.198742C16.7325 0.380212 17.0786 0.675911 17.3214 1.05003C17.5643 1.42415 17.6934 1.86065 17.6933 2.30667V2.30667Z" />
<path d="M4.61342 4.61334C5.88736 4.61334 6.92009 3.58061 6.92009 2.30667C6.92009 1.03273 5.88736 1.90735e-06 4.61342 1.90735e-06C3.33948 1.90735e-06 2.30676 1.03273 2.30676 2.30667C2.30676 3.58061 3.33948 4.61334 4.61342 4.61334Z" />
</svg>
