<svg viewBox="0 0 20 17" fill="currentColor" xmlns="http://www.w3.org/2000/svg"><path d="M17.693 2.307A2.3 2.3 0 0115.62 4.6h-.473a2.307 2.307 0 112.546-2.293zM7.88 10.9a5.092 5.092 0 00-2.933 2.947H0V10a4.627 4.627 0 014.613-4.613 4.48 4.48 0 012 .466A3.86 3.86 0 007.88 10.9zM20 10v3.847h-4.947A5.092 5.092 0 0012.12 10.9a3.86 3.86 0 001.267-5.047 4.48 4.48 0 012-.466A4.62 4.62 0 0120 10z"/><path d="M13.08 7.693a3.067 3.067 0 01-2.313 2.974 2.987 2.987 0 01-1.534 0A3.067 3.067 0 017.287 6.24a3.073 3.073 0 015.426 0c.243.446.369.946.367 1.453zM14.613 15.5v1.42H5.387V15.5a4.3 4.3 0 012.873-3.96 4.048 4.048 0 003.48 0 4.54 4.54 0 011.52.933 4.14 4.14 0 011.353 3.027zM17.693 2.307A2.3 2.3 0 0115.62 4.6h-.473a2.307 2.307 0 112.546-2.293zM4.613 4.613a2.307 2.307 0 100-4.613 2.307 2.307 0 000 4.613z"/></svg>