<svg width="15" height="15" viewBox="0 0 15 15" fill="none" xmlns="http://www.w3.org/2000/svg">
<path d="M14.2105 12.6316H0.789474C0.353459 12.6316 0 12.985 0 13.4211C0 13.8571 0.353459 14.2105 0.789474 14.2105H14.2105C14.6465 14.2105 15 13.8571 15 13.4211C15 12.985 14.6465 12.6316 14.2105 12.6316Z" fill="#161D39"/>
<path d="M13.8553 0H1.14474C0.512516 0 0 0.512516 0 1.14474V10.6974C0 11.3296 0.512516 11.8421 1.14474 11.8421H13.8553C14.4875 11.8421 15 11.3296 15 10.6974V1.14474C15 0.512516 14.4875 0 13.8553 0Z" fill="#161D39"/>
<path d="M13.4211 1.57895H1.57895V10.2632H13.4211V1.57895Z" fill="white"/>
<path d="M10.4056 3.1737L11.5266 4.29475L7.0582 8.76317L4.26347 5.96844L5.38452 4.85528L7.0582 6.52896L10.4056 3.1737Z" fill="#161D39"/>
</svg>
