<svg xmlns="http://www.w3.org/2000/svg" viewBox="0 0 30 32" fill="currentColor">
  <path d="M26.5 13.5h-8v8h8v-8z"/>
  <path d="M26 14v7h-7v-7h7zm1-1h-9v9h9v-9z"/>
  <path d="M29 1v28.06H17.05a3 3 0 00-2 .74V1.94a1 1 0 011-.94H29zm1-1H16.05a2 2 0 00-2 1.94V32h1a1.9 1.9 0 01.59-1.38 2 2 0 011.4-.56H30V0z"/>
  <path d="M13.12 1a.91.91 0 01.88.94v27.78a2.78 2.78 0 00-1.81-.66H1V1h12.12zm0-1H0v30.06h12.19a1.84 1.84 0 011.32.56 1.93 1.93 0 01.55 1.38H15V1.94A1.91 1.91 0 0013.12 0z"/>
  <path d="M22 5.5h5M3 13.5h9M3 9.5h7M3 5.5h5M18 9.5h9M3 17.5h9M3 21.5h9M3 25.5h9M18 25.5h9" stroke="currentColor" stroke-miterlimit="10"/>
</svg>
