<?xml version="1.0" encoding="UTF-8"?>
<svg width="426px" height="512px" viewBox="0 0 426 512" version="1.1" xmlns="http://www.w3.org/2000/svg" xmlns:xlink="http://www.w3.org/1999/xlink">
    <!-- Generator: Sketch 53.2 (72643) - https://sketchapp.com -->
    <title>swissprot</title>
    <desc>Created with Sketch.</desc>
    <g id="Page-1" stroke="none" stroke-width="1" fill="none" fill-rule="evenodd">
        <g id="swissprot" transform="translate(-6.000000, 0.000000)" fill="#000000" fill-rule="nonzero">
            <path d="M432,144 L288,144 L288,0 L432,144 Z M112.96,404.128 L179.072,438.88 L166.448,365.248 L219.936,313.088 L146,302.336 L112.944,235.36 L79.872,302.336 L5.952,313.088 L59.456,365.248 L46.816,438.88 L112.96,404.128 Z M32,491.856 L32,512 L232.192,512 L112.96,449.312 L32,491.856 Z M146,302.336 L112.944,235.36 L79.872,302.336 L32,309.312 L32,338.464 L59.456,365.248 L46.816,438.88 L112.96,404.128 L179.072,438.88 L166.448,365.248 L219.936,313.088 L146,302.336 Z M256,176 L256,0 L32,0 L32,268.88 L53.312,265.776 L112.96,144.992 L172.56,265.776 L305.872,285.184 L209.424,379.216 L232.192,512 L432,512 L432,176 L256,176 Z" id="Shape"></path>
        </g>
    </g>
</svg>