<!-- Generated by IcoMoon.io -->
<svg version="1.1" xmlns="http://www.w3.org/2000/svg" width="32" height="32" viewBox="0 0 32 32">
<title>swissprot</title>
<path d="M29 9h-9v-9zM9.060 25.258l4.132 2.172-0.789-4.602 3.343-3.26-4.621-0.672-2.066-4.186-2.067 4.186-4.62 0.672 3.344 3.26-0.79 4.602zM4 30.741v1.259h12.512l-7.452-3.918zM11.125 18.896l-2.066-4.186-2.067 4.186-2.992 0.436v1.822l1.716 1.674-0.79 4.602 4.134-2.172 4.132 2.172-0.789-4.602 3.343-3.26zM18 11v-11h-14v16.805l1.332-0.194 3.728-7.549 3.725 7.549 8.332 1.213-6.028 5.877 1.423 8.299h12.488v-21z"></path>
</svg>
