<?xml version="1.0" encoding="UTF-8"?>
<svg width="512px" height="512px" viewBox="0 0 512 512" version="1.1" xmlns="http://www.w3.org/2000/svg" xmlns:xlink="http://www.w3.org/1999/xlink">
    <!-- Generator: Sketch 53.2 (72643) - https://sketchapp.com -->
    <title>tag</title>
    <desc>Created with Sketch.</desc>
    <g id="Page-1" stroke="none" stroke-width="1" fill="none" fill-rule="evenodd">
        <g id="tag" fill="#000000" fill-rule="nonzero">
            <path d="M0,252.118 L0,48 C0,21.49 21.49,0 48,0 L252.118,0 C264.848366,6.65676412e-05 277.057305,5.05723856 286.059,14.059 L497.941,225.941 C516.686,244.686 516.686,275.078 497.941,293.823 L293.823,497.941 C275.078,516.686 244.686,516.686 225.941,497.941 L14.059,286.059 C5.05723856,277.057305 6.65676412e-05,264.848366 0,252.118 Z M112,64 C85.49,64 64,85.49 64,112 C64,138.51 85.49,160 112,160 C138.51,160 160,138.51 160,112 C160,85.49 138.51,64 112,64 Z" id="Shape"></path>
        </g>
    </g>
</svg>