<svg viewBox="0 0 64 64" fill="currentColor" xmlns="http://www.w3.org/2000/svg">
    <path d="M50.6575 42.8707L63.1188 55.332C64.2812 56.507 64.2812 58.4067 63.1062 59.5817L59.5691 63.1188C58.4067 64.2937 56.507 64.2937 55.332 63.1188L42.8707 50.6575C42.3084 50.095 41.9959 49.3326 41.9959 48.5327V46.4954C37.5838 49.9451 32.0343 51.9949 25.9974 51.9949C11.6364 51.9949 0 40.3585 0 25.9974C0 11.6364 11.6364 0 25.9974 0C33.3727 0 40.0294 3.06901 44.7604 7.99999H34.7264C32.0888 6.71826 29.1271 5.99935 25.9974 5.99935C14.9528 5.99935 5.99935 14.9528 5.99935 25.9974C5.99935 37.0421 14.9528 45.9954 25.9974 45.9954C31.5897 45.9954 36.6458 43.7 40.275 40H47.9101C47.4695 40.688 46.9974 41.354 46.4954 41.9959H48.5327C49.3326 41.9959 50.095 42.3084 50.6575 42.8707Z" />
    <path d="M28.8 28.264L25.984 20.568C25.8453 20.2267 25.7013 19.8213 25.552 19.352C25.4027 18.8827 25.2533 18.376 25.104 17.832C24.9653 18.376 24.8213 18.888 24.672 19.368C24.5227 19.8373 24.3787 20.248 24.24 20.6L21.44 28.264H28.8ZM36.4 37H33.072C32.6987 37 32.3947 36.9093 32.16 36.728C31.9253 36.536 31.7493 36.3013 31.632 36.024L29.904 31.304H20.32L18.592 36.024C18.5067 36.2693 18.3413 36.4933 18.096 36.696C17.8507 36.8987 17.5467 37 17.184 37H13.824L22.928 13.864H27.312L36.4 37ZM50.8268 28.264L48.0108 20.568C47.8721 20.2267 47.7281 19.8213 47.5788 19.352C47.4294 18.8827 47.2801 18.376 47.1308 17.832C46.9921 18.376 46.8481 18.888 46.6988 19.368C46.5494 19.8373 46.4054 20.248 46.2668 20.6L43.4668 28.264H50.8268ZM58.4268 37H55.0988C54.7254 37 54.4214 36.9093 54.1868 36.728C53.9521 36.536 53.7761 36.3013 53.6588 36.024L51.9308 31.304H42.3468L40.6188 36.024C40.5334 36.2693 40.3681 36.4933 40.1228 36.696C39.8774 36.8987 39.5734 37 39.2108 37H35.8508L44.9548 13.864H49.3388L58.4268 37Z" />
</svg>