<svg viewBox="0 0 23 20" fill="none" xmlns="http://www.w3.org/2000/svg">
    <path d="M15.83 13.397l3.895 3.894a.942.942 0 01-.004 1.328l-1.106 1.106a.934.934 0 01-1.324 0l-3.894-3.895a.937.937 0 01-.273-.664v-.636a8.085 8.085 0 01-5 1.718A8.123 8.123 0 010 8.124 8.123 8.123 0 018.124 0a8.1 8.1 0 015.864 2.5h-3.136a6.25 6.25 0 101.734 10h2.386a8.125 8.125 0 01-.442.624h.636c.25 0 .489.097.665.273z" fill="currentColor"/>
    <path d="M20.267 10.407a3.43 3.43 0 01-.79.08c-.343 0-.66-.059-.95-.175a2.14 2.14 0 01-.75-.515 2.338 2.338 0 01-.49-.82 3.305 3.305 0 01-.175-1.115c0-.387.055-.737.165-1.05.11-.314.267-.582.47-.805.204-.224.448-.395.735-.515.29-.12.614-.18.97-.18.124 0 .239.004.346.014a2.915 2.915 0 01.69.146c.136.046.26.101.37.165.037.02.074.042.11.063l.05.028.058.034c.038.021.075.043.111.065.051.032.101.055.151.068a.378.378 0 00.094.012c.127 0 .229-.062.305-.185l.39-.61c-.3-.28-.666-.507-1.1-.68-.43-.177-.94-.265-1.53-.265-.576 0-1.096.09-1.56.27-.463.18-.858.433-1.185.76a3.39 3.39 0 00-.75 1.17 4.085 4.085 0 00-.265 1.495c0 .536.09 1.031.27 1.485.183.453.437.843.76 1.17.323.326.707.581 1.15.765.443.183.928.275 1.455.275.297 0 .573-.017.83-.05.257-.03.497-.077.72-.14a3.69 3.69 0 001.21-.59V7.852h-2.405v.76c0 .07.025.13.075.18.05.046.119.07.205.07h.905v1.315a3.439 3.439 0 01-.645.23z" fill="currentColor"/>
    <path fill-rule="evenodd" clip-rule="evenodd" d="M10.388 11.477h-1.04a.585.585 0 01-.134-.015.417.417 0 01-.156-.07.545.545 0 01-.16-.22l-.54-1.475H5.363l-.54 1.475a.41.41 0 01-.08.134.591.591 0 01-.08.076.433.433 0 01-.285.095H3.333l2.84-7.23h1.375l2.84 7.23zm-4.68-2.73h2.305l-.88-2.405c-.04-.107-.085-.232-.135-.375a12.37 12.37 0 01-.14-.475 12.373 12.373 0 01-.27.86l-.88 2.395z" fill="currentColor"/>
    <path d="M15.595 4.247v1.105H13.42v6.125h-1.345V5.352H9.892V4.247h5.704z" fill="currentColor"/>
</svg>