<svg viewBox="0 0 34 17" width="34" height="17" fill="none" xmlns="http://www.w3.org/2000/svg"><path fill-rule="evenodd" clip-rule="evenodd" d="M11.254 11h1.248L9.094 2.324h-1.65L4.036 11H5.29c.136 0 .25-.038.342-.114a.56.56 0 00.192-.252l.648-1.77h3.594l.648 1.77c.04.104.104.192.192.264a.57.57 0 00.348.102zM9.652 7.724H6.886L7.942 4.85a4.632 4.632 0 00.156-.462 13.923 13.923 0 00.168-.57 16.31 16.31 0 00.168.57c.06.172.114.322.162.45l1.056 2.886z" fill="currentColor"/><path d="M18.75 3.65V2.324h-6.845V3.65h2.622V11h1.614V3.65h2.61zM24.357 9.716a4.118 4.118 0 01-.948.096c-.412 0-.792-.07-1.14-.21a2.566 2.566 0 01-.9-.618A2.805 2.805 0 0120.78 8a3.964 3.964 0 01-.21-1.338c0-.464.066-.884.198-1.26s.32-.698.564-.966c.244-.268.538-.474.882-.618a3.018 3.018 0 011.163-.216c.265 0 .497.018.697.054.204.036.386.082.546.138.164.056.312.122.444.198.136.076.268.152.396.228.1.064.198.096.294.096.152 0 .274-.074.366-.222l.468-.732c-.36-.336-.8-.608-1.32-.816-.516-.212-1.128-.318-1.836-.318-.692 0-1.316.108-1.872.324-.556.216-1.03.52-1.422.912a4.07 4.07 0 00-.9 1.404 4.9 4.9 0 00-.318 1.794c0 .644.108 1.238.324 1.782.22.544.524 1.012.912 1.404.388.392.848.698 1.38.918.532.22 1.114.33 1.746.33.355 0 .688-.02.996-.06.308-.036.596-.092.864-.168a4.415 4.415 0 001.452-.708V6.65h-2.886v.912c0 .084.03.156.09.216.06.056.142.084.246.084h1.086V9.44a4.13 4.13 0 01-.774.276z" fill="currentColor"/><path fill-rule="evenodd" clip-rule="evenodd" d="M25 14c1.285 0 2.49-.346 3.525-.951.034.126.1.241.193.334l3.115 3.116a.747.747 0 001.06 0l.884-.885a.754.754 0 00.003-1.062l-3.116-3.115a.739.739 0 00-.154-.119A7 7 0 0025 0H7a7 7 0 000 14h18zm0-13H7a6 6 0 100 12h18a5.997 5.997 0 005.172-2.957c.49-.912.783-1.945.823-3.043.002.047.003.094.003.142C31 7.095 31 7.047 31 7a6 6 0 00-6-6z" fill="currentColor"/></svg>